# xmcd
#
# Track frame offsets: 
#        150
#        21570
#        42489
#        62247
#        82764
#        100197
#        116705
#        135128
#        151095
#        172530
#        189273
#        206260
#
# Disc length: 3027 seconds
#
# Revision: 0
# Processed by: cddbd v1.5.2PL0 Copyright (c) Steve Scherf et al.
# Submitted via: ExactAudioCopyFreeDBPlugin 1.0
#
DISCID=890bd10c
DTITLE=Thanh Bui - Tim ve dau yeu
DYEAR=2011
DGENRE=Blues
TTITLE0=Niem vui noi day
TTITLE1=Tim ve dau yeu
TTITLE2=Duong ve xa xoi
TTITLE3=Guong than
TTITLE4=Lang tham mot tinh yeu
TTITLE5=Giu lay thang nam
TTITLE6=Van yeu em mai
TTITLE7=Song tron cho nhau
TTITLE8=Tinh nao cao hon
TTITLE9=Trong mat toi
TTITLE10=Dung quay buoc di
TTITLE11=Tron trao
EXTD=
EXTT0=
EXTT1=
EXTT2=
EXTT3=
EXTT4=
EXTT5=
EXTT6=
EXTT7=
EXTT8=
EXTT9=
EXTT10=
EXTT11=
PLAYORDER=
